<svg width="127" height="50" viewBox="0 0 127 50" fill="none" xmlns="http://www.w3.org/2000/svg">
<path d="M115.12 10.3801C115.12 17.0501 106.77 16.6501 106.77 21.3201C106.77 26.3901 118.21 26.3901 118.21 36.4301C118.276 37.773 117.812 39.0882 116.918 40.0925C116.024 41.0968 114.772 41.71 113.43 41.8001C107.43 41.8001 102.6 34.4401 102.43 24.0001C102.26 13.5601 106.6 6.71009 111.48 6.71009C111.966 6.68849 112.452 6.76888 112.905 6.94608C113.359 7.12328 113.77 7.39336 114.113 7.73899C114.456 8.08462 114.722 8.49816 114.896 8.95301C115.069 9.40786 115.146 9.89397 115.12 10.3801ZM126.76 37.8201C126.76 25.5001 114.13 21.3201 114.13 20.8201C114.13 20.3201 122.88 16.3501 122.88 8.99009C122.88 4.42009 119.4 0.0500862 112.14 0.0500862C99.02 0.0500862 93.45 12.1701 93.45 22.8101C93.45 39.3101 100.71 49.6501 113.53 49.6501C120.69 49.6501 126.76 45.3801 126.76 37.8201ZM21.67 10.3801C21.67 17.0501 13.32 16.7501 13.32 21.3201C13.32 26.3901 24.76 26.3901 24.76 36.4301C24.8259 37.773 24.362 39.0882 23.468 40.0925C22.5741 41.0968 21.3215 41.71 19.98 41.8001C13.98 41.8001 9.15001 34.4401 8.98001 24.0001C8.81001 13.5601 13.15 6.71009 18.03 6.71009C18.5163 6.68849 19.0018 6.76888 19.4552 6.94608C19.9086 7.12328 20.3199 7.39336 20.6627 7.73899C21.0055 8.08462 21.2722 8.49816 21.4457 8.95301C21.6192 9.40786 21.6956 9.89397 21.67 10.3801ZM33.31 37.8201C33.31 25.4001 20.68 21.3201 20.68 20.8201C20.68 20.3201 29.43 16.4501 29.43 8.99009C29.43 4.42009 25.95 0.0500862 18.69 0.0500862C5.57 0.0500862 0 12.1701 0 22.8101C0 39.3101 7.25999 49.6501 20.08 49.6501C27.25 49.6501 33.31 45.3801 33.31 37.8201ZM57.76 0.150092C54.68 0.840092 53.59 2.23008 54.18 4.92008C56.1939 12.5809 57.2618 20.4596 57.36 28.3801C57.36 35.4401 56.17 41.7001 52 41.7001C48.42 41.7001 46.33 37.0301 46.33 25.6001C46.3162 18.982 46.7471 12.3704 47.62 5.8101C47.92 3.5301 46.73 1.93009 44.04 1.74009C41.04 1.34009 39.57 2.83009 39.27 4.74009C38.08 13.6901 37.08 20.4501 37.08 27.0101C37.08 38.8401 40.66 49.6701 51.4 49.6701C60.55 49.6701 66.61 41.7201 66.61 27.9001C66.4266 19.5761 65.2994 11.2999 63.25 3.23008C62.73 0.840079 60.74 -0.449908 57.76 0.150092ZM86 41.7001C83.61 41.7001 81.52 40.4101 81.52 34.0501C81.52 29.8701 83.01 11.2801 83.71 4.62009C84.01 2.13009 83.01 0.440086 79.71 0.0500862C77.03 -0.149914 75.14 0.640091 74.34 3.43009C73.25 7.20009 72.16 23.2101 72.16 29.9701C72.16 46.6701 78.72 49.6501 84.16 49.6501C86.8282 49.729 89.4586 49.0043 91.71 47.5701C92.1525 47.2576 92.5216 46.8525 92.7917 46.3829C93.0617 45.9133 93.2262 45.3906 93.2738 44.851C93.3214 44.3114 93.2509 43.7678 93.0672 43.2582C92.8835 42.7487 92.591 42.2852 92.21 41.9001C89.77 39.8101 88.38 41.7001 86 41.7001Z" fill="#EFEF4D"></path>
</svg>
